<?xml version="1.0" encoding="UTF-8" standalone="no"?>
<svg
   width="2048"
   height="2048"
   viewBox="0 0 2048 2048"
   version="1.1"
   id="svg7"
   xmlns="http://www.w3.org/2000/svg"
   xmlns:svg="http://www.w3.org/2000/svg">
  <defs
     id="defs7" />
  <path
     fill="#012A63"
     d="m 1159.034,216.418 c 58.448,-3.152 106.144,27.98 134.218,78.284 3.174,-0.446 6.356,-0.822 9.546,-1.126 33.154,-3.034 64.602,17.712 77.97,47.94 9.608,21.726 9.348,41.07 11.15,64.434 1.894,25.848 3.95,51.684 6.168,77.508 l 30.306,358.682 c 38.884,10.186 77.412,21.986 116.168,32.5 49.362,13.392 99.474,25.484 148.3,40.778 1.26,152.974 1.38,305.954 0.362,458.928 -0.12,67.468 2.374,141.668 -0.014,208.576 -17.378,0.202 -34.754,0.574 -52.124,1.118 1.208,-21.898 0.578,-45.754 0.59,-67.826 l -0.616,-145.208 -0.154,-416.802 c -25.8,-7.492 -52.062,-13.536 -78,-20.63 l -176.802,-48.938 c 0.626,23.196 0.028,46.956 0.052,70.26 60.592,17.786 121.976,33.748 182.284,51.542 l -0.244,554.132 c -18.546,-3.908 -37.03,-8.106 -55.444,-12.596 1.346,21.648 -0.038,37.908 -0.942,59.37 -13.346,3.23 -30.368,6.178 -44.24,9.048 l -89.666,19.082 c -20.854,4.314 -41.526,7.718 -62.284,12.668 l -472.57,100.298 c -0.502,27.5 -0.734,55.002 -0.698,82.506 -15.56,-1.104 -36.236,-0.648 -52.196,-0.724 -1.334,-51.188 0.04,-106.578 0.02,-158.074 l -0.628,-337.69 c 0.006,-63.232 1.418,-130.108 0.022,-193 -14.65,-6.102 -57.686,-16.046 -75.132,-20.602 l -153.31,-40.476 c -4.116,-36.264 -5.76,-78.72 -8.654,-115.634 L 533.108,718.482 c -3.246,-41.682 -5.082,-83.708 -9.732,-125.254 -1.48,-13.21 -2.638,-34.492 -5.266,-46.868 -1.772,-8.57 -4.586,-16.89 -8.376,-24.778 -16.608,-34.544 -38.978,-51.624 -74.046,-63.834 55.072,-9.058 119.93,-24.324 175.376,-35.842 0.622,18.308 0.264,38.292 0.288,56.722 -17.122,4.766 -43.24,9.32 -61.232,13.036 13.08,22.78 16.824,36.894 21.378,62.032 l 105.856,-22.358 c -16.12,-61.278 -9.542,-123.7 30.18,-175.398 23.758,-30.922 61.766,-52.412 100.336,-56.518 51.904,-5.526 103.986,21.46 132.274,64.686 23.292,34.156 29.04,56.726 33.098,96.808 18.284,-3.78 36.504,-7.866 54.652,-12.256 -4.348,-15.83 -9.15,-26.976 -10.466,-44.028 -6.804,-88.154 47.46,-181.376 141.606,-188.214 z"
     id="path2"
     style="fill:#1e3a5f;fill-opacity:1;stroke-width:2" />
  <path
     fill="#ffffff"
     d="m 1159.408,564.404 c 43.26,-4.682 94.436,20.486 124.61,50.352 51.974,51.446 51,105.412 50.79,172.64 l -0.586,92.626 0.586,235.596 c 59.308,1.936 120.028,-12.602 159.194,43.024 24.706,35.09 18.026,63.488 12.026,102.746 -2.89,18.5 -5.612,37.026 -8.168,55.576 -11.288,80.81 -22.722,166.888 -36.162,247.146 -27.74,4.906 -59.32,12.184 -87.128,18.206 4.412,-102.512 22.104,-208.718 24.922,-311.574 0.176,-6.414 -1.778,-17.074 -3.482,-23.356 -9.33,-33.432 -31.554,-61.792 -61.786,-78.844 -31.228,-17.546 -59.366,-17.05 -94.02,-15.778 -5.6,0.204 -20.852,-2.596 -23.424,2.19 l 2.124,3.836 c 14.446,19.954 17.286,25.198 27.056,47.27 10.356,-0.14 24.24,-0.642 34.382,0.118 19.89,1.388 38.388,10.714 51.33,25.884 9.514,11.364 15.388,25.33 16.86,40.078 1.2,12.568 -0.912,31.17 -2.076,44.07 l -5.116,55.594 -20.854,221.554 c -37.338,6.432 -75.092,17.064 -112.51,23.27 -0.194,-30.904 2.558,-68.042 4.23,-98.754 l 6.624,-129.806 c 1.376,-25.82 3.448,-52.882 4.242,-78.612 1.528,-42.688 -14.424,-84.152 -44.166,-114.81 -22.052,-23.142 -52.446,-40.394 -84.26,-45.404 -12.222,-1.924 -28.228,-1.886 -40.84,-2.164 l 0.26,-221.192 0.202,-71.626 c 0.06,-24.044 0.962,-46.262 -3.34,-70.096 -6.68,-37.002 -21.988,-76.658 -46.486,-105.566 32.482,-62.822 82.218,-107.396 154.966,-114.194 z"
     id="path3"
     style="stroke-width:2" />
  <path
     fill="#ffffff"
     d="m 807.716,650.408 c 47.222,-6.036 98.97,18.352 131.766,51.126 22.272,22.464 37.87,50.672 45.052,81.482 5.782,25.72 4.43,52.036 4.358,78.32 l -0.164,76.198 0.282,263.308 c 20.002,-0.612 40.016,-0.726 60.022,-0.34 10.204,0.106 25.632,-0.12 35.238,1.28 25.68,3.908 48.76,17.852 64.168,38.766 27.498,37.22 19.83,67.66 13.866,110.324 -4.068,29.292 -8.526,58.53 -13.374,87.704 l -29.428,197.752 c -8.206,0.958 -20.724,4.044 -29.33,5.888 -18.8,4.12 -37.634,8.082 -56.502,11.884 1.256,-27.914 7.062,-73.336 10.224,-101.472 l 10.968,-105.676 c 3.012,-26.776 10.142,-66.66 7.574,-91.802 -7.164,-70.13 -75.604,-122.15 -144.974,-115.654 -9.784,0.916 -21.008,-0.324 -31.514,0.854 l 0.184,51.688 c 18.03,-0.096 39.142,-0.696 56.73,0.434 20.77,1.824 37.336,11.982 50.274,27.61 29.042,35.084 14.166,77.206 9.716,119.038 l -25.244,226.502 c -29.458,8.686 -66.202,15.518 -96.634,21.212 -1.252,-14.258 -0.93,-31.412 -0.96,-45.944 l -0.062,-67.006 c 0.278,-70.948 0.064,-141.896 -0.644,-212.842 -12.7,0.012 -25.398,-0.308 -38.082,-0.96 -0.59,-23.76 -0.102,-49.496 -0.136,-73.398 l -0.304,-185.194 c -16.408,-5.602 -46.862,-12.774 -63.952,-17.22 -42.268,-10.744 -84.464,-21.764 -126.588,-33.06 -0.666,-54.194 -0.81,-108.392 -0.432,-162.588 0.068,-27.718 -1.522,-74.592 3.786,-99.676 5.88,-27.302 18.044,-52.856 35.528,-74.632 30.322,-37.176 70.776,-59.274 118.588,-63.906 z"
     id="path4"
     style="stroke-width:2" />
  <path
     fill="#ffffff"
     d="m 816.65,353.398 c 18.308,-2.59 43.432,6.04 58.262,16.782 65.7,47.586 63.836,163.656 -1.81,210.158 -14.052,9.954 -26.604,13.27 -43.456,15.74 -140.134,4.594 -145.934,-227.65 -12.996,-242.68 z"
     id="path5"
     style="stroke-width:2" />
  <path
     fill="#ffffff"
     d="m 1161.112,270.368 c 20.11,-3.024 44.984,5.7 60.868,17.782 75.866,57.714 54.652,209.966 -46.95,223.754 -134.416,4.644 -146.72,-223.732 -13.918,-241.536 z"
     id="path6"
     style="stroke-width:2" />
  <path
     fill="#012A63"
     d="m 352.88,499.42 c 21.824,6.446 44.01,14.218 65.464,21.884 40.188,14.36 37.128,49.41 39.704,84.852 l 6.044,81.318 22.802,297.186 7.018,86.454 c 1.488,19.276 2.588,42.748 5.344,61.424 24.752,5.412 51.03,13.374 75.718,19.732 48.486,12.17 96.79,25.058 144.894,38.662 l -0.038,616.986 c -0.374,0.936 -0.062,0.288 -1.346,1.682 -39.366,-12.196 -79.578,-26.322 -118.634,-39.472 l -159.536,-52.906 c -29,-9.642 -57.814,-19.854 -86.94,-29.146 -0.63,-11.108 -0.174,-26.716 -0.2,-38.242 l -0.144,-72.018 0.13,-247.914 z"
     id="path7"
     style="fill:#1e3a5f;fill-opacity:1;stroke-width:2" />
</svg>
